<?xml version="1.0" standalone="no"?>
<!DOCTYPE svg PUBLIC "-//W3C//DTD SVG 20010904//EN"
 "http://www.w3.org/TR/2001/REC-SVG-20010904/DTD/svg10.dtd">
<svg version="1.0" xmlns="http://www.w3.org/2000/svg"
 width="512.000000pt" height="512.000000pt" viewBox="0 0 512.000000 512.000000"
 preserveAspectRatio="xMidYMid meet">
<metadata>
Created by potrace 1.11, written by Peter Selinger 2001-2013
</metadata>
<g transform="translate(0.000000,512.000000) scale(0.100000,-0.100000)"
fill="#000000" stroke="none">
<path d="M403 5106 c-190 -46 -353 -214 -392 -404 -16 -75 -16 -4209 0 -4284
40 -195 212 -367 407 -407 75 -16 4209 -16 4284 0 195 40 367 212 407 407 16
75 16 4209 0 4284 -40 195 -212 367 -407 407 -82 17 -4229 14 -4299 -3z m2147
-271 l0 -95 -136 0 c-104 0 -135 -3 -132 -12 3 -9 42 -14 136 -16 108 -2 132
-5 132 -17 0 -13 -69 -15 -522 -15 -588 1 -556 -6 -359 75 246 101 564 169
814 174 l67 1 0 -95z m355 69 c138 -20 343 -72 471 -119 129 -48 337 -150 443
-217 l84 -53 -191 -3 c-175 -2 -220 -9 -176 -26 9 -3 106 -6 216 -6 l200 0 64
-51 c61 -49 64 -53 64 -95 l0 -44 -119 0 c-121 0 -155 -5 -145 -21 3 -5 63 -9
135 -9 l129 0 0 -100 0 -99 -132 -3 c-80 -2 -133 -7 -133 -13 0 -6 53 -11 133
-13 l132 -3 0 -99 0 -100 -277 -2 c-177 -2 -278 -7 -278 -13 0 -6 101 -11 278
-13 l277 -2 0 -100 0 -100 -135 0 c-83 0 -135 -4 -135 -10 0 -6 52 -10 135
-10 l135 0 0 -85 0 -85 -755 0 -755 0 0 75 0 75 334 0 c193 0 346 4 360 10
l26 10 0 538 c0 405 -3 541 -12 550 -9 9 -103 12 -360 12 -300 0 -348 2 -348
15 0 12 24 15 132 17 94 2 133 7 136 16 3 9 -28 12 -132 12 l-136 0 0 97 0 96
113 -7 c61 -4 162 -14 222 -22z m-1042 -405 c46 -12 99 -57 120 -101 l17 -33
-58 -27 -57 -26 -18 34 c-21 41 -48 56 -90 52 -26 -2 -36 -10 -50 -40 -30 -60
-9 -92 101 -156 174 -102 220 -181 181 -313 -47 -156 -264 -204 -387 -86 -31
30 -78 105 -70 112 2 2 28 15 58 29 l54 25 32 -47 c49 -74 106 -91 149 -47 31
30 33 82 5 118 -11 14 -56 46 -101 73 -144 84 -179 129 -179 229 0 148 141
247 293 204z m548 -12 c24 -13 56 -42 71 -64 27 -39 65 -159 54 -170 -3 -3
-34 -8 -69 -10 l-64 -6 -5 52 c-9 95 -73 141 -116 86 -30 -38 -42 -110 -42
-254 0 -140 14 -208 51 -247 55 -59 129 7 129 115 0 19 4 22 23 17 12 -3 39
-6 61 -6 l38 0 -7 -47 c-21 -152 -124 -239 -248 -211 -92 21 -155 112 -178
258 -14 92 -7 247 15 317 49 158 172 230 287 170z m-1358 -30 c51 -30 86 -76
113 -147 14 -34 18 -78 18 -185 0 -124 -2 -147 -23 -200 -30 -75 -100 -148
-156 -164 -22 -6 -88 -11 -147 -11 l-108 0 0 371 0 371 128 -3 c118 -4 130 -6
175 -32z m387 -337 l0 -370 -65 0 -65 0 0 364 c0 411 -8 373 83 375 l47 1 0
-370z m2705 200 l29 -30 -32 0 c-29 0 -32 3 -32 30 0 17 1 30 3 30 2 0 16 -13
32 -30z m160 -157 c80 -90 196 -239 238 -305 l17 -28 -225 0 -225 0 0 100 0
99 133 3 c79 2 132 7 132 13 0 6 -53 11 -132 13 l-133 3 0 99 0 100 54 0 54 0
87 -97z m327 -453 c41 -73 138 -281 138 -295 0 -3 -148 -5 -330 -5 l-330 0 0
85 0 85 135 0 c83 0 135 4 135 10 0 6 -52 10 -135 10 l-135 0 0 100 0 100 237
-2 238 -3 47 -85z m-3622 -240 l0 -90 -119 0 c-66 0 -126 -3 -135 -6 -42 -16
-4 -24 119 -24 l135 0 0 -100 0 -100 -277 -2 c-177 -2 -278 -7 -278 -13 0 -6
101 -11 278 -13 l277 -2 0 -100 0 -99 -132 -3 c-80 -2 -133 -7 -133 -13 0 -6
53 -11 133 -13 l132 -3 0 -99 0 -100 -135 0 c-83 0 -135 -4 -135 -10 0 -6 52
-10 135 -10 l135 0 0 -100 0 -100 -277 -2 c-210 -2 -277 -6 -281 -15 -3 -10
57 -13 277 -13 l281 0 0 -100 0 -99 -132 -3 c-80 -2 -133 -7 -133 -13 0 -6 53
-11 133 -13 l132 -3 0 -34 c0 -33 -2 -35 -34 -35 -48 0 -66 -22 -66 -80 l0
-49 -82 -3 c-47 -2 -83 -7 -83 -13 0 -6 36 -11 83 -13 l82 -3 0 -99 0 -100
-231 0 c-180 0 -230 -3 -227 -12 4 -10 61 -14 231 -16 l227 -2 0 -95 0 -95
-69 0 c-72 0 -101 -6 -101 -21 0 -5 38 -9 85 -9 l85 0 0 -100 0 -99 -80 -3
c-45 -2 -80 -7 -80 -13 0 -6 35 -11 80 -13 l80 -3 0 -99 0 -100 -109 0 -110 0
-48 67 c-126 177 -235 381 -308 577 -47 128 -98 331 -121 481 -26 167 -26 503
0 670 31 207 98 442 176 618 l21 47 299 0 300 0 0 -90z m1540 15 l0 -75 -348
0 c-257 0 -351 -3 -360 -12 -15 -15 -17 -1064 -2 -1088 8 -13 61 -15 360 -18
l350 -3 0 -24 0 -25 -135 0 c-113 0 -135 -2 -135 -15 0 -13 22 -15 135 -15
l135 0 0 -35 0 -35 -755 0 -755 0 0 35 0 34 133 3 c79 2 132 7 132 13 0 6 -53
11 -132 13 l-133 3 0 99 0 100 278 2 c176 2 277 7 277 13 0 6 -101 11 -277 13
l-278 2 0 100 0 100 135 0 c83 0 135 4 135 10 0 6 -52 10 -135 10 l-135 0 0
100 0 99 133 3 c79 2 132 7 132 13 0 6 -53 11 -132 13 l-133 3 0 99 0 100 278
2 c176 2 277 7 277 13 0 6 -101 11 -277 13 l-278 2 0 100 0 100 129 0 c72 0
132 4 135 9 10 16 -24 21 -145 21 l-119 0 0 90 0 90 755 0 755 0 0 -75z m138
-273 c79 -36 122 -138 129 -302 14 -320 -92 -484 -281 -435 -96 25 -148 118
-167 298 -12 120 1 256 33 328 22 53 84 116 120 123 13 3 32 7 43 9 29 7 85
-3 123 -21z m561 -10 c41 -32 87 -118 97 -178 6 -40 5 -41 -26 -48 -18 -3 -47
-6 -64 -6 -31 0 -32 2 -44 60 -24 113 -87 135 -132 45 -23 -47 -25 -60 -25
-205 0 -175 13 -239 53 -271 53 -41 104 -6 121 84 5 26 10 49 12 51 2 2 28 1
57 -1 49 -5 52 -7 52 -32 0 -49 -30 -131 -62 -167 -42 -48 -83 -67 -144 -66
-129 1 -200 94 -225 296 -13 100 -4 210 24 296 16 50 33 77 73 117 56 56 74
63 148 57 35 -2 60 -12 85 -32z m-1001 -299 c-4 -347 -7 -367 -63 -411 -20
-16 -41 -22 -79 -22 -87 0 -96 6 -96 56 0 41 2 44 23 39 15 -4 32 1 48 13 l24
20 3 305 c3 345 -6 314 90 316 l54 1 -4 -317z m1352 157 c0 -88 3 -160 8 -160
4 0 45 71 92 158 l85 157 74 3 c42 2 71 -1 69 -6 -1 -5 -36 -74 -77 -153 l-74
-144 81 -205 c53 -138 76 -207 68 -211 -22 -13 -120 -29 -126 -22 -4 5 -31 79
-60 166 -28 86 -55 157 -59 157 -4 0 -24 -30 -44 -66 -35 -64 -37 -71 -37
-160 l0 -94 -65 0 -65 0 0 364 c0 411 -8 373 83 375 l47 1 0 -160z m800 126
c0 -65 -1 -66 -121 -66 l-109 0 0 -95 0 -95 80 0 80 0 0 -60 0 -60 -80 0 -80
0 0 -110 0 -110 120 0 c134 0 130 3 114 -79 l-6 -31 -184 0 -184 0 0 370 0
370 185 0 185 0 0 -34z m250 -122 c29 -85 54 -153 56 -151 3 3 29 71 58 153
l54 149 56 3 c31 2 56 -1 56 -5 0 -5 -35 -94 -77 -198 l-78 -190 -5 -170 -5
-170 -67 -3 -68 -3 0 143 0 144 -90 224 c-49 123 -90 226 -90 227 0 2 33 3 74
3 l74 0 52 -156z m-570 -799 l0 -24 -130 -3 c-175 -4 -177 -22 -2 -26 l132 -3
0 -34 0 -35 -755 0 -755 0 0 35 0 35 135 0 c113 0 135 2 135 15 0 13 -22 15
-135 15 l-135 0 0 25 0 25 755 0 755 0 0 -25z m830 2 c0 -48 -41 -249 -75
-366 -77 -267 -203 -522 -372 -753 l-35 -48 -109 0 -109 0 0 100 0 99 83 3
c46 2 82 7 82 13 0 6 -36 11 -82 13 l-83 3 0 99 0 100 85 0 c47 0 85 4 85 9 0
15 -29 21 -101 21 l-69 0 0 95 0 95 214 0 c118 0 221 3 230 6 47 18 -6 24
-214 24 l-230 0 0 100 0 99 83 3 c46 2 82 7 82 13 0 6 -36 11 -82 13 l-83 3 0
49 c0 58 -18 80 -66 80 -32 0 -34 2 -34 35 l0 34 133 3 c79 2 132 7 132 13 0
6 -53 11 -132 13 l-133 3 0 24 0 25 400 0 400 0 0 -23z m-2599 -323 c61 -31
119 -137 119 -216 0 -28 -1 -28 -64 -28 l-63 0 -6 45 c-20 139 -115 153 -148
21 -17 -65 -17 -306 0 -365 23 -82 87 -116 130 -69 12 12 26 47 32 77 l11 56
54 -3 54 -4 0 -37 c0 -133 -113 -246 -227 -228 -128 21 -192 130 -201 344 -5
139 7 220 45 301 52 110 167 157 264 106z m-543 -3 c49 -25 66 -45 99 -116 25
-54 28 -73 31 -198 8 -260 -45 -394 -170 -427 -126 -35 -229 46 -263 205 -18
84 -19 269 -4 349 16 77 64 155 114 183 52 29 140 31 193 4z m-440 -318 c-3
-359 -5 -369 -65 -408 -27 -18 -129 -25 -152 -10 -6 3 -11 24 -11 46 0 35 3
39 25 39 14 0 34 9 45 20 19 19 20 33 20 324 l0 305 38 4 c20 2 52 4 70 5 l33
2 -3 -327z m1364 162 l3 -164 89 164 88 165 73 0 72 0 -78 -153 -78 -153 79
-204 c44 -113 76 -207 72 -211 -8 -7 -94 -29 -116 -29 -9 0 -21 21 -32 53 -51
157 -97 276 -104 272 -5 -3 -22 -31 -39 -62 -29 -52 -31 -64 -31 -155 l0 -98
-70 0 -70 0 0 364 0 365 38 4 c20 2 52 4 69 5 l33 2 2 -165z m794 149 c-3 -9
-6 -33 -6 -55 l0 -39 -115 0 -115 0 0 -95 0 -95 80 0 80 0 0 -55 0 -55 -80 0
-80 0 0 -110 0 -110 121 0 120 0 -3 -52 -3 -53 -187 -3 -188 -2 0 370 0 370
191 0 c170 0 190 -2 185 -16z m249 -144 c43 -128 53 -152 62 -135 5 11 31 82
58 158 l48 137 58 0 59 0 -19 -47 c-10 -27 -49 -122 -85 -213 l-66 -164 0
-158 0 -158 -39 0 c-21 0 -53 -3 -70 -6 l-31 -6 0 151 0 151 -71 177 c-39 98
-80 200 -90 226 l-19 48 77 -3 76 -3 52 -155z m-2813 -745 c14 -18 29 -25 54
-25 l34 0 0 -75 0 -75 -58 0 -58 0 -70 78 c-38 42 -78 87 -88 100 l-19 22 93
0 c86 0 93 -2 112 -25z m3462 3 c-10 -13 -50 -58 -88 -100 l-70 -78 -58 0 -58
0 0 75 0 75 35 0 c25 0 39 7 52 25 17 23 24 24 112 25 l94 0 -19 -22z m-1834
-103 l0 -75 -135 0 c-178 0 -180 -18 -2 -22 l132 -3 3 -97 3 -97 -132 -3 c-95
-2 -134 -7 -137 -15 -3 -10 28 -13 132 -13 l136 0 0 -100 0 -100 -280 0 c-242
0 -280 -2 -280 -15 0 -13 38 -15 280 -15 l280 0 0 -100 0 -100 -49 0 c-144 0
-412 41 -586 90 -143 41 -312 107 -319 125 -3 8 -18 15 -32 15 -31 0 -171 72
-284 146 l-75 49 40 3 c97 7 78 32 -25 32 -62 0 -68 2 -122 46 -58 45 -58 46
-58 100 l0 54 135 0 c83 0 135 4 135 10 0 6 -52 10 -135 10 l-135 0 0 75 0 75
755 0 755 0 0 -75z m1530 0 l0 -75 -135 0 c-83 0 -135 -4 -135 -10 0 -6 52
-10 135 -10 l135 0 0 -54 c0 -54 0 -55 -57 -100 -55 -44 -61 -46 -123 -46 -66
0 -110 -13 -80 -24 8 -3 33 -7 55 -8 l40 -3 -75 -49 c-113 -74 -253 -146 -284
-146 -14 0 -29 -7 -32 -15 -7 -18 -176 -84 -319 -125 -174 -49 -442 -90 -586
-90 l-49 0 0 100 0 100 280 0 c242 0 280 2 280 15 0 13 -38 15 -280 15 l-280
0 0 100 0 100 136 0 c104 0 135 3 132 13 -3 8 -42 13 -137 15 l-132 3 3 97 3
97 133 3 c177 4 175 22 -3 22 l-135 0 0 75 0 75 755 0 755 0 0 -75z m-3070
-135 c0 -22 -1 -40 -3 -40 -2 0 -21 18 -42 40 l-39 40 42 0 42 0 0 -40z m3180
37 c0 -2 -18 -21 -40 -42 l-40 -39 0 42 0 42 40 0 c22 0 40 -1 40 -3z"/>
<path d="M890 4126 l0 -266 36 0 c27 0 44 8 69 33 47 47 58 98 53 252 -5 180
-25 216 -130 241 l-28 6 0 -266z"/>
<path d="M2557 3118 c-34 -26 -50 -89 -55 -218 -8 -208 19 -311 83 -318 39 -5
72 30 86 92 18 80 8 362 -14 403 -26 49 -66 66 -100 41z"/>
<path d="M1653 1849 c-12 -4 -29 -22 -38 -39 -23 -45 -37 -182 -30 -295 10
-157 31 -205 90 -205 69 0 89 63 90 275 0 151 -1 163 -25 209 -27 53 -51 68
-87 55z"/>
</g>
</svg>
